<svg width="1919" height="1451" viewBox="0 0 1919 1451" fill="none" xmlns="http://www.w3.org/2000/svg">
<path d="M203 1371.93C199.133 1365.55 194.493 1361.59 189.08 1360.04C183.473 1358.3 176.223 1357.43 167.33 1357.43L54.81 1357.43L54.81 1412.24C54.81 1423.46 59.6433 1432.16 69.31 1438.34L-1.41452e-05 1438.34L-2.47933e-05 1194.74L69.31 1194.74C59.6433 1200.93 54.81 1209.73 54.81 1221.13L54.81 1275.36L173.42 1275.36C179.413 1275.36 185.117 1274.2 190.53 1271.88C195.943 1269.56 200.1 1265.89 203 1260.86L203 1371.93ZM203 1180.91C200.68 1176.08 196.91 1172.4 191.69 1169.89C186.47 1167.18 180.96 1165.83 175.16 1165.83L27.26 1165.83C21.8467 1165.83 16.6267 1167.09 11.6 1169.6C6.57332 1172.11 2.70665 1175.69 -1.41705e-05 1180.33L-1.86833e-05 1077.09C2.12666 1079.02 5.21999 1080.67 9.27998 1082.02C13.34 1083.18 18.27 1083.76 24.07 1083.76L75.98 1083.76L75.98 993.571L24.07 993.571C18.27 993.571 13.34 994.151 9.27998 995.311C5.21999 996.471 2.12665 998.114 -2.20425e-05 1000.24L-2.65553e-05 897.001C2.70664 901.641 6.57331 905.218 11.6 907.731C16.4333 910.244 21.5566 911.501 26.97 911.501L175.16 911.501C180.96 911.501 186.373 910.244 191.4 907.731C196.427 905.218 200.293 901.641 203 897.001L203 1000.24C200.873 998.114 197.78 996.471 193.72 995.311C189.467 994.151 184.343 993.571 178.35 993.571L117.45 993.571L117.45 1083.76L178.35 1083.76C190.143 1083.76 198.36 1081.44 203 1076.8L203 1180.91ZM203 882.125C197.2 872.458 188.403 867.625 176.61 867.625L26.97 867.625C14.4033 867.625 5.41332 872.555 -1.41452e-05 882.415L-2.16369e-05 711.025C-2.20763e-05 700.972 1.06331 691.208 3.18999 681.735C5.12332 672.262 8.31332 663.852 12.76 656.505C17.0133 648.965 22.7167 642.972 29.87 638.525C37.0233 634.078 45.7233 631.855 55.97 631.855C67.7633 631.855 77.9133 635.045 86.42 641.425C94.9267 647.612 101.887 656.312 107.3 667.525C111.553 652.638 118.9 641.812 129.34 635.045C134.753 631.372 141.713 628.568 150.22 626.635C158.533 624.702 168.49 623.735 180.09 623.735C190.53 623.735 198.167 618.708 203 608.655L203 715.375C199.52 708.608 193.333 705.225 184.44 705.225C168.973 705.225 157.47 708.415 149.93 714.795C142.39 721.175 138.62 731.905 138.62 746.985L138.62 785.555L176.61 785.555C188.403 785.555 197.2 780.722 203 771.055L203 882.125ZM92.8 785.555L92.8 735.965C92.8 727.652 90.6733 720.498 86.42 714.505C82.1667 708.318 75.5933 705.225 66.7 705.225C58.9666 705.225 53.07 707.835 49.01 713.055C44.95 718.275 42.92 725.428 42.92 734.515L42.92 785.555L92.8 785.555ZM203 594.114C196.813 584.448 188.017 579.614 176.61 579.614L27.55 579.614C21.9433 579.614 16.6267 580.871 11.6 583.384C6.57332 585.898 2.70665 589.474 -1.41452e-05 594.114L-1.90002e-05 483.044C2.70665 487.684 6.57332 491.261 11.6 493.774C16.6267 496.288 21.8467 497.544 27.26 497.544L175.16 497.544C180.96 497.544 186.373 496.288 191.4 493.774C196.427 491.261 200.293 487.684 203 483.044L203 594.114ZM203.29 468.655C200.583 463.822 196.717 460.245 191.69 457.925C186.47 455.412 181.057 454.155 175.45 454.155L27.26 454.155C21.8467 454.155 16.6267 455.412 11.6 457.925C6.57332 460.439 2.70665 464.015 -1.41452e-05 468.655L-1.90129e-05 357.295C5.79999 367.155 14.9833 372.085 27.55 372.085L151.38 372.085L151.38 291.465C151.38 282.572 149.543 274.065 145.87 265.945C142.003 257.825 136.397 251.252 129.05 246.225L203.29 246.225L203.29 468.655ZM203.29 231.614C200.583 226.781 196.717 223.204 191.69 220.884C186.47 218.371 181.057 217.114 175.45 217.114L27.26 217.114C21.8467 217.114 16.6267 218.371 11.6 220.884C6.57332 223.398 2.70665 226.974 -1.41452e-05 231.614L-1.90129e-05 120.254C5.79999 130.114 14.9833 135.044 27.55 135.044L151.38 135.044L151.38 54.4242C151.38 45.5309 149.543 37.0242 145.87 28.9042C142.003 20.7843 136.397 14.2109 129.05 9.18425L203.29 9.18424L203.29 231.614ZM361.837 203C368.217 199.133 372.18 194.493 373.727 189.08C375.467 183.473 376.337 176.223 376.337 167.33V54.81H321.527C310.313 54.81 301.613 59.6433 295.427 69.31V-1.38283e-05L539.027 -1.38283e-05V69.31C532.84 59.6433 524.043 54.81 512.637 54.81H458.407V173.42C458.407 179.413 459.567 185.117 461.887 190.53C464.207 195.943 467.88 200.1 472.907 203H361.837ZM552.858 203C557.692 200.68 561.365 196.91 563.878 191.69C566.585 186.47 567.938 180.96 567.938 175.16V27.26C567.938 21.8467 566.682 16.6267 564.168 11.6C561.655 6.57332 558.078 2.70665 553.438 -1.38283e-05L656.678 -1.38283e-05C654.745 2.12666 653.102 5.21999 651.748 9.27999C650.588 13.34 650.008 18.27 650.008 24.07V75.98H740.198V24.07C740.198 18.27 739.618 13.34 738.458 9.27999C737.298 5.21999 735.655 2.12666 733.528 -1.38283e-05L836.768 -1.38283e-05C832.128 2.70665 828.552 6.57332 826.038 11.6C823.525 16.4333 822.268 21.5567 822.268 26.97V175.16C822.268 180.96 823.525 186.373 826.038 191.4C828.552 196.427 832.128 200.293 836.768 203H733.528C735.655 200.873 737.298 197.78 738.458 193.72C739.618 189.467 740.198 184.343 740.198 178.35V117.45H650.008V178.35C650.008 190.143 652.328 198.36 656.968 203H552.858ZM851.644 203C861.311 197.2 866.144 188.403 866.144 176.61V26.97C866.144 14.4033 861.214 5.41332 851.354 -1.38283e-05L1022.74 -1.38283e-05C1032.8 -1.38283e-05 1042.56 1.06332 1052.03 3.19C1061.51 5.12333 1069.92 8.31333 1077.26 12.76C1084.8 17.0133 1090.8 22.7167 1095.24 29.87C1099.69 37.0233 1101.91 45.7233 1101.91 55.97C1101.91 67.7633 1098.72 77.9133 1092.34 86.42C1086.16 94.9267 1077.46 101.887 1066.24 107.3C1081.13 111.553 1091.96 118.9 1098.72 129.34C1102.4 134.753 1105.2 141.713 1107.13 150.22C1109.07 158.533 1110.03 168.49 1110.03 180.09C1110.03 190.53 1115.06 198.167 1125.11 203H1018.39C1025.16 199.52 1028.54 193.333 1028.54 184.44C1028.54 168.973 1025.35 157.47 1018.97 149.93C1012.59 142.39 1001.86 138.62 986.784 138.62H948.215V176.61C948.215 188.403 953.048 197.2 962.714 203H851.644ZM948.215 92.8H997.805C1006.12 92.8 1013.27 90.6733 1019.26 86.42C1025.45 82.1667 1028.54 75.5933 1028.54 66.7C1028.54 58.9667 1025.93 53.07 1020.71 49.01C1015.49 44.95 1008.34 42.92 999.254 42.92H948.215V92.8ZM1139.66 203C1149.32 196.813 1154.16 188.017 1154.16 176.61V27.55C1154.16 21.9433 1152.9 16.6267 1150.39 11.6C1147.87 6.57332 1144.3 2.70665 1139.66 -1.38283e-05L1250.73 -1.38283e-05C1246.09 2.70665 1242.51 6.57332 1240 11.6C1237.48 16.6267 1236.23 21.8467 1236.23 27.26V175.16C1236.23 180.96 1237.48 186.373 1240 191.4C1242.51 196.427 1246.09 200.293 1250.73 203H1139.66ZM1265.11 203.29C1269.95 200.583 1273.52 196.717 1275.84 191.69C1278.36 186.47 1279.61 181.057 1279.61 175.45V27.26C1279.61 21.8467 1278.36 16.6267 1275.84 11.6C1273.33 6.57332 1269.75 2.70665 1265.11 -1.38283e-05L1376.47 -1.38283e-05C1366.61 5.79999 1361.68 14.9833 1361.68 27.55V151.38H1442.3C1451.2 151.38 1459.7 149.543 1467.82 145.87C1475.94 142.003 1482.52 136.397 1487.54 129.05V203.29H1265.11ZM1502.16 203.29C1506.99 200.583 1510.57 196.717 1512.89 191.69C1515.4 186.47 1516.66 181.057 1516.66 175.45V27.26C1516.66 21.8467 1515.4 16.6267 1512.89 11.6C1510.37 6.57332 1506.8 2.70665 1502.16 -1.38283e-05L1613.52 -1.38283e-05C1603.66 5.79999 1598.73 14.9833 1598.73 27.55V151.38H1679.35C1688.24 151.38 1696.75 149.543 1704.87 145.87C1712.99 142.003 1719.56 136.397 1724.59 129.05V203.29H1502.16ZM1691.82 111.197C1696.84 116.718 1702.16 119.718 1707.77 120.199C1713.6 120.832 1720.88 120.297 1729.61 118.593L1840.05 97.0296L1829.54 43.2355C1827.39 32.23 1820.98 24.6175 1810.31 20.398L1878.34 7.11563L1925.02 246.201L1856.99 259.483C1865.29 251.559 1868.35 241.999 1866.17 230.803L1855.77 177.579L1739.36 200.309C1733.48 201.457 1728.11 203.689 1723.24 207.003C1718.37 210.317 1714.99 214.719 1713.11 220.208L1691.82 111.197ZM1716 222.628C1718.32 227.461 1722.09 231.135 1727.31 233.648C1732.53 236.355 1738.04 237.708 1743.84 237.708L1891.74 237.708C1897.15 237.708 1902.37 236.451 1907.4 233.938C1912.43 231.425 1916.29 227.848 1919 223.208L1919 326.448C1916.87 324.515 1913.78 322.871 1909.72 321.518C1905.66 320.358 1900.73 319.778 1894.93 319.778L1843.02 319.778L1843.02 409.968L1894.93 409.968C1900.73 409.968 1905.66 409.388 1909.72 408.228C1913.78 407.068 1916.87 405.425 1919 403.298L1919 506.538C1916.29 501.898 1912.43 498.321 1907.4 495.808C1902.57 493.295 1897.44 492.038 1892.03 492.038L1743.84 492.038C1738.04 492.038 1732.63 493.295 1727.6 495.808C1722.57 498.321 1718.71 501.898 1716 506.538L1716 403.298C1718.13 405.425 1721.22 407.068 1725.28 408.228C1729.53 409.388 1734.66 409.968 1740.65 409.968L1801.55 409.968L1801.55 319.778L1740.65 319.778C1728.86 319.778 1720.64 322.098 1716 326.738L1716 222.628ZM1716 521.414C1721.8 531.081 1730.6 535.914 1742.39 535.914L1892.03 535.914C1904.6 535.914 1913.59 530.984 1919 521.124L1919 692.514C1919 702.567 1917.94 712.331 1915.81 721.804C1913.88 731.277 1910.69 739.687 1906.24 747.034C1901.99 754.574 1896.28 760.567 1889.13 765.014C1881.98 769.461 1873.28 771.684 1863.03 771.684C1851.24 771.684 1841.09 768.494 1832.58 762.114C1824.07 755.927 1817.11 747.227 1811.7 736.014C1807.45 750.901 1800.1 761.727 1789.66 768.494C1784.25 772.167 1777.29 774.971 1768.78 776.904C1760.47 778.837 1750.51 779.804 1738.91 779.804C1728.47 779.804 1720.83 784.831 1716 794.884L1716 688.164C1719.48 694.931 1725.67 698.314 1734.56 698.314C1750.03 698.314 1761.53 695.124 1769.07 688.744C1776.61 682.364 1780.38 671.634 1780.38 656.554L1780.38 617.984L1742.39 617.984C1730.6 617.984 1721.8 622.817 1716 632.484L1716 521.414ZM1826.2 617.984L1826.2 667.574C1826.2 675.887 1828.33 683.041 1832.58 689.034C1836.83 695.221 1843.41 698.314 1852.3 698.314C1860.03 698.314 1865.93 695.704 1869.99 690.484C1874.05 685.264 1876.08 678.111 1876.08 669.024L1876.08 617.984L1826.2 617.984ZM1716 809.425C1722.19 819.091 1730.98 823.925 1742.39 823.925L1891.45 823.925C1897.06 823.925 1902.37 822.668 1907.4 820.155C1912.43 817.641 1916.29 814.065 1919 809.425L1919 920.495C1916.29 915.855 1912.43 912.278 1907.4 909.765C1902.37 907.251 1897.15 905.995 1891.74 905.995L1743.84 905.995C1738.04 905.995 1732.63 907.251 1727.6 909.765C1722.57 912.278 1718.71 915.855 1716 920.495L1716 809.425ZM1715.71 934.884C1718.42 939.717 1722.28 943.294 1727.31 945.614C1732.53 948.127 1737.94 949.384 1743.55 949.384L1891.74 949.384C1897.15 949.384 1902.37 948.127 1907.4 945.614C1912.43 943.1 1916.29 939.524 1919 934.884L1919 1046.24C1913.2 1036.38 1904.02 1031.45 1891.45 1031.45L1767.62 1031.45L1767.62 1112.07C1767.62 1120.97 1769.46 1129.47 1773.13 1137.59C1777 1145.71 1782.6 1152.29 1789.95 1157.31L1715.71 1157.31L1715.71 934.884ZM1715.71 1171.93C1718.42 1176.76 1722.28 1180.34 1727.31 1182.66C1732.53 1185.17 1737.94 1186.43 1743.55 1186.43L1891.74 1186.43C1897.15 1186.43 1902.37 1185.17 1907.4 1182.66C1912.43 1180.14 1916.29 1176.57 1919 1171.93L1919 1283.29C1913.2 1273.43 1904.02 1268.5 1891.45 1268.5L1767.62 1268.5L1767.62 1349.12C1767.62 1358.01 1769.46 1366.52 1773.13 1374.64C1777 1382.76 1782.6 1389.33 1789.95 1394.36L1715.71 1394.36L1715.71 1171.93ZM1604.63 1248C1598.25 1251.87 1594.28 1256.51 1592.74 1261.92C1591 1267.53 1590.13 1274.78 1590.13 1283.67L1590.13 1396.19L1644.94 1396.19C1656.15 1396.19 1664.85 1391.36 1671.04 1381.69L1671.04 1451L1427.44 1451L1427.44 1381.69C1433.62 1391.36 1442.42 1396.19 1453.83 1396.19L1508.06 1396.19L1508.06 1277.58C1508.06 1271.59 1506.9 1265.88 1504.58 1260.47C1502.26 1255.06 1498.58 1250.9 1493.56 1248L1604.63 1248ZM1413.6 1248C1408.77 1250.32 1405.09 1254.09 1402.58 1259.31C1399.87 1264.53 1398.52 1270.04 1398.52 1275.84L1398.52 1423.74C1398.52 1429.15 1399.78 1434.37 1402.29 1439.4C1404.8 1444.43 1408.38 1448.29 1413.02 1451L1309.78 1451C1311.71 1448.87 1313.36 1445.78 1314.71 1441.72C1315.87 1437.66 1316.45 1432.73 1316.45 1426.93L1316.45 1375.02L1226.26 1375.02L1226.26 1426.93C1226.26 1432.73 1226.84 1437.66 1228 1441.72C1229.16 1445.78 1230.8 1448.87 1232.93 1451L1129.69 1451C1134.33 1448.29 1137.91 1444.43 1140.42 1439.4C1142.93 1434.57 1144.19 1429.44 1144.19 1424.03L1144.19 1275.84C1144.19 1270.04 1142.93 1264.63 1140.42 1259.6C1137.91 1254.57 1134.33 1250.71 1129.69 1248L1232.93 1248C1230.8 1250.13 1229.16 1253.22 1228 1257.28C1226.84 1261.53 1226.26 1266.66 1226.26 1272.65L1226.26 1333.55L1316.45 1333.55L1316.45 1272.65C1316.45 1260.86 1314.13 1252.64 1309.49 1248L1413.6 1248ZM1114.82 1248C1105.15 1253.8 1100.32 1262.6 1100.32 1274.39L1100.32 1424.03C1100.32 1436.6 1105.25 1445.59 1115.11 1451L943.715 1451C933.662 1451 923.899 1449.94 914.425 1447.81C904.952 1445.88 896.542 1442.69 889.195 1438.24C881.655 1433.99 875.662 1428.28 871.215 1421.13C866.769 1413.98 864.545 1405.28 864.545 1395.03C864.545 1383.24 867.735 1373.09 874.115 1364.58C880.302 1356.07 889.002 1349.11 900.215 1343.7C885.329 1339.45 874.502 1332.1 867.735 1321.66C864.062 1316.25 861.259 1309.29 859.325 1300.78C857.392 1292.47 856.425 1282.51 856.425 1270.91C856.425 1260.47 851.399 1252.83 841.345 1248L948.065 1248C941.299 1251.48 937.915 1257.67 937.915 1266.56C937.915 1282.03 941.105 1293.53 947.485 1301.07C953.865 1308.61 964.595 1312.38 979.675 1312.38L1018.25 1312.38L1018.25 1274.39C1018.25 1262.6 1013.41 1253.8 1003.75 1248L1114.82 1248ZM1018.25 1358.2L968.655 1358.2C960.342 1358.2 953.189 1360.33 947.195 1364.58C941.009 1368.83 937.915 1375.41 937.915 1384.3C937.915 1392.03 940.525 1397.93 945.745 1401.99C950.965 1406.05 958.119 1408.08 967.205 1408.08L1018.25 1408.08L1018.25 1358.2ZM826.805 1248C817.138 1254.19 812.305 1262.98 812.305 1274.39L812.305 1423.45C812.305 1429.06 813.561 1434.37 816.075 1439.4C818.588 1444.43 822.165 1448.29 826.805 1451L715.735 1451C720.375 1448.29 723.951 1444.43 726.465 1439.4C728.978 1434.37 730.235 1429.15 730.235 1423.74L730.235 1275.84C730.235 1270.04 728.978 1264.63 726.465 1259.6C723.951 1254.57 720.375 1250.71 715.735 1248L826.805 1248ZM701.348 1247.71C696.514 1250.42 692.938 1254.28 690.618 1259.31C688.104 1264.53 686.848 1269.94 686.848 1275.55L686.848 1423.74C686.848 1429.15 688.104 1434.37 690.618 1439.4C693.131 1444.43 696.708 1448.29 701.348 1451L589.988 1451C599.848 1445.2 604.778 1436.02 604.778 1423.45L604.778 1299.62L524.158 1299.62C515.264 1299.62 506.758 1301.46 498.638 1305.13C490.518 1309 483.944 1314.6 478.918 1321.95L478.918 1247.71L701.348 1247.71ZM464.305 1247.71C459.471 1250.42 455.895 1254.28 453.575 1259.31C451.061 1264.53 449.805 1269.94 449.805 1275.55L449.805 1423.74C449.805 1429.15 451.061 1434.37 453.575 1439.4C456.088 1444.43 459.665 1448.29 464.305 1451L352.945 1451C362.805 1445.2 367.735 1436.02 367.735 1423.45L367.735 1299.62L287.115 1299.62C278.221 1299.62 269.715 1301.46 261.595 1305.13C253.475 1309 246.901 1314.6 241.875 1321.95L241.875 1247.71L464.305 1247.71Z" fill="#D9D9D9" style="mix-blend-mode:multiply"/>
</svg>
